<svg xmlns="http://www.w3.org/2000/svg" width="54" height="54" viewBox="0 0 54 54">
  <g id="Group_16056" data-name="Group 16056" transform="translate(-330 9)">
    <g id="Ellipse_27" data-name="Ellipse 27" transform="translate(330 -9)" fill="none" stroke="#5c4728" stroke-width="1.5">
      <circle cx="27" cy="27" r="27" stroke="none"/>
      <circle cx="27" cy="27" r="26.25" fill="none"/>
    </g>
    <g id="Profile" transform="translate(344.336 3.92)">
      <g id="Profile-2" data-name="Profile" transform="translate(3.664 2.08)" fill="none">
        <path d="M0,19.891c0-3.266,4.376-4.081,9.5-4.081,5.152,0,9.5.846,9.5,4.111S14.624,24,9.5,24C4.35,24,0,23.154,0,19.891ZM3.214,6.349a6.287,6.287,0,1,1,12.574,0,6.287,6.287,0,1,1-12.574,0Z" stroke="none"/>
        <path d="M 9.499999046325684 22.5 C 12.22195911407471 22.5 14.29860877990723 22.25426864624023 15.67225933074951 21.76963996887207 C 17.5 21.12480926513672 17.5 20.28032875061035 17.5 19.91971969604492 C 17.5 19.55621910095215 17.5 18.70497894287109 15.67667865753174 18.05239868164062 C 14.29879951477051 17.55924987792969 12.22065925598145 17.3091983795166 9.499999046325684 17.3091983795166 C 6.777988910675049 17.3091983795166 4.701368808746338 17.55495834350586 3.327839136123657 18.03965950012207 C 1.499999046325684 18.68466949462891 1.499999046325684 19.52970886230469 1.499999046325684 19.89055824279785 C 1.499999046325684 20.25375938415527 1.499999046325684 21.10430908203125 3.323959112167358 21.75686836242676 C 4.702208995819092 22.24997901916504 6.780128955841064 22.5 9.499999046325684 22.5 M 9.499999046325684 11.19984912872314 C 10.78460884094238 11.19984912872314 11.98734951019287 10.69958877563477 12.88665866851807 9.791218757629395 C 13.78992938995361 8.878849029541016 14.28737926483154 7.656518936157227 14.28737926483154 6.349379062652588 C 14.28737926483154 5.042748928070068 13.78994941711426 3.820779085159302 12.88671875 2.908559083938599 C 11.98734951019287 2.000239133834839 10.78458881378174 1.499999046325684 9.499999046325684 1.499999046325684 C 8.216269493103027 1.499999046325684 7.013978958129883 2.000239133834839 6.114609241485596 2.908559083938599 C 5.211208820343018 3.820949077606201 4.713688850402832 5.042919158935547 4.713688850402832 6.349379062652588 C 4.713688850402832 7.656339168548584 5.211238861083984 8.878679275512695 6.114668846130371 9.791218757629395 C 7.013978958129883 10.69958877563477 8.216249465942383 11.19984912872314 9.499999046325684 11.19984912872314 M 9.499999046325684 24 C 4.349759101867676 24 -9.5367431640625e-07 23.15434837341309 -9.5367431640625e-07 19.89055824279785 C -9.5367431640625e-07 16.62459945678711 4.376479148864746 15.80919933319092 9.499999046325684 15.80919933319092 C 14.65237903594971 15.80919933319092 19 16.65484809875488 19 19.91971969604492 C 19 23.18458938598633 14.62351894378662 24 9.499999046325684 24 Z M 9.499999046325684 12.69984912872314 C 6.01163911819458 12.69984912872314 3.213689088821411 9.874539375305176 3.213689088821411 6.349379062652588 C 3.213689088821411 2.825309038162231 6.01163911819458 -9.5367431640625e-07 9.499999046325684 -9.5367431640625e-07 C 12.99048900604248 -9.5367431640625e-07 15.78737926483154 2.825309038162231 15.78737926483154 6.349379062652588 C 15.78737926483154 9.874539375305176 12.99048900604248 12.69984912872314 9.499999046325684 12.69984912872314 Z" stroke="none" fill="#5c4728"/>
      </g>
    </g>
  </g>
</svg>
