<svg id="Group_15257" data-name="Group 15257" xmlns="http://www.w3.org/2000/svg" width="49.836" height="57.909" viewBox="0 0 49.836 57.909">
  <path id="Path_44585" data-name="Path 44585" d="M-3583.819,452.482h-14.193a1.461,1.461,0,0,0-1.467,1.456v.013a1.461,1.461,0,0,0,1.454,1.468h14.293a1.461,1.461,0,0,0,1.461-1.461v-.007A1.533,1.533,0,0,0-3583.819,452.482Z" transform="translate(3615.618 -446.365)" fill="#009640"/>
  <path id="Path_44586" data-name="Path 44586" d="M-3583.819,534.119h-14.193a1.461,1.461,0,0,0-1.467,1.456v.013a1.461,1.461,0,0,0,1.454,1.468h14.293a1.461,1.461,0,0,0,1.461-1.461v-.007A1.59,1.59,0,0,0-3583.819,534.119Z" transform="translate(3615.618 -521.802)" fill="#009640"/>
  <path id="Path_44587" data-name="Path 44587" d="M-3365.9,936.585h7.1a1.462,1.462,0,0,0,1.468-1.454v-.014a1.461,1.461,0,0,0-1.455-1.468h-7.11a1.461,1.461,0,0,0-1.468,1.454v.014a1.461,1.461,0,0,0,1.455,1.469Z" transform="translate(3401.13 -890.991)" fill="#009640"/>
  <path id="Path_44588" data-name="Path 44588" d="M-3365.9,1018.221h7.1a1.461,1.461,0,0,0,1.468-1.454v-.014a1.461,1.461,0,0,0-1.455-1.468h-7.11a1.461,1.461,0,0,0-1.468,1.454v.014a1.461,1.461,0,0,0,1.455,1.469Z" transform="translate(3401.13 -966.428)" fill="#009640"/>
  <path id="Path_44589" data-name="Path 44589" d="M-3785.829,399.424v-6.117h11.5a1.462,1.462,0,0,0,1.469-1.454V373.405a1.462,1.462,0,0,0-1.455-1.468h-25.952a1.462,1.462,0,0,0-1.462,1.461v18.44a1.462,1.462,0,0,0,1.455,1.468h11.515v6.117h-12.312a1.463,1.463,0,0,0-1.468,1.457v7.592h-7.992a1.461,1.461,0,0,0-1.469,1.454v18.447a1.462,1.462,0,0,0,1.454,1.468h19.017a1.463,1.463,0,0,0,1.469-1.454V409.946a1.463,1.463,0,0,0-1.455-1.469h-8.008v-6.118h24.876v6.117h-7.989a1.462,1.462,0,0,0-1.469,1.454v18.447a1.462,1.462,0,0,0,1.455,1.468h19.017a1.462,1.462,0,0,0,1.469-1.454V409.946a1.461,1.461,0,0,0-1.454-1.469h-8.007l.021-7.742a1.3,1.3,0,0,0-1.3-1.3Zm-12.968-24.55h23v15.5h-23Zm5.8,52.039h-16.066v-15.5H-3793Zm27.73,0h-15.985v-15.5h16.067v15.5Z" transform="translate(3812 -371.937)" fill="#009640"/>
  <path id="Path_44592" data-name="Path 44592" d="M-3732.147,936.585h7.1a1.461,1.461,0,0,0,1.469-1.454v-.014a1.461,1.461,0,0,0-1.454-1.468h-7.112a1.461,1.461,0,0,0-1.468,1.454v.014a1.463,1.463,0,0,0,1.458,1.469Z" transform="translate(3739.57 -890.991)" fill="#009640"/>
  <path id="Path_44593" data-name="Path 44593" d="M-3732.147,1018.221h7.1a1.461,1.461,0,0,0,1.469-1.454v-.014a1.461,1.461,0,0,0-1.454-1.468h-7.112a1.461,1.461,0,0,0-1.468,1.454v.014a1.463,1.463,0,0,0,1.458,1.469Z" transform="translate(3739.57 -966.428)" fill="#009640"/>
</svg>
