<svg xmlns="http://www.w3.org/2000/svg" width="20" height="25" viewBox="0 0 20 25">
  <g id="Bookmark" transform="translate(-4.018 -2)">
    <path id="Bookmark-2" data-name="Bookmark" d="M18.732,25a1.287,1.287,0,0,1-.645-.176l-8.1-4.05-8.112,4.05a1.313,1.313,0,0,1-.612.162A1.27,1.27,0,0,1,0,23.712V4.737A4.145,4.145,0,0,1,1.8,1.094,7.7,7.7,0,0,1,6.126,0h7.712a7.728,7.728,0,0,1,4.338,1.094A4.2,4.2,0,0,1,20,4.737V23.712a1.273,1.273,0,0,1-.925,1.237A1.165,1.165,0,0,1,18.732,25ZM5.275,7.55a.988.988,0,0,0,0,1.975h9.413a.988.988,0,0,0,0-1.975Z" transform="translate(4.018 2)" fill="#5c4728"/>
  </g>
</svg>
