<svg xmlns="http://www.w3.org/2000/svg" width="46.595" height="59.048" viewBox="0 0 46.595 59.048">
  <g id="Group_14908" data-name="Group 14908" transform="translate(1.5 1.5)">
    <path id="Path_44581" data-name="Path 44581" d="M62.124,72.42h3.218a5.713,5.713,0,0,0,5.833-5.585V26.585A5.713,5.713,0,0,0,65.342,21H33.413a5.713,5.713,0,0,0-5.833,5.585v40.25a5.713,5.713,0,0,0,5.833,5.585H53.121" transform="translate(-27.58 -21)" fill="none" stroke="#009640" stroke-width="3"/>
    <path id="Path_44582" data-name="Path 44582" d="M27.58,28.15a3.47,3.47,0,0,0,3.471,3.471h22.07" transform="translate(-27.58 -21.198)" fill="none" stroke="#009640" stroke-width="3"/>
    <line id="Line_41" data-name="Line 41" x1="9.052" transform="translate(34.544 10.423)" fill="none" stroke="#009640" stroke-width="3"/>
    <path id="Path_44583" data-name="Path 44583" d="M53.85,21V77.048l4.5-4.176,4.5,4.176V21" transform="translate(-28.309 -21)" fill="none" stroke="#009640" stroke-linecap="round" stroke-linejoin="round" stroke-width="3"/>
  </g>
</svg>
