<svg xmlns="http://www.w3.org/2000/svg" xmlns:xlink="http://www.w3.org/1999/xlink" width="117.516" height="56.772" viewBox="0 0 117.516 56.772">
  <defs>
    <linearGradient id="linear-gradient" x1="0.5" y1="0.012" x2="0.5" y2="0.998" gradientUnits="objectBoundingBox">
      <stop offset="0" stop-color="#e3d7c5"/>
      <stop offset="0.999" stop-color="#fff"/>
      <stop offset="1" stop-color="#eff0fe"/>
    </linearGradient>
  </defs>
  <g id="Group_15299" data-name="Group 15299" transform="translate(0.655 -15.115)">
    <path id="Line_1" d="M0,1.727s8.061,19,16.6,19c8.061,0,8.061-8.059,16.6-8.059,8.061,0,8.061,13.24,16.6,13.24C57.85,25.905,57.85,0,66.385,0c8.061,0,8.061,39.721,16.6,39.721,8.061,0,8.061-16.119,16.6-16.119,8.061,0,16.6,13.816,16.6,13.816V56.272H0Z" transform="translate(0 15.615)" opacity="0.759" fill="url(#linear-gradient)"/>
    <path id="Line_1-2" data-name="Line_1" d="M0,1.736s8.061,19.1,16.6,19.1c8.061,0,8.061-8.1,16.6-8.1,8.061,0,8.061,13.312,16.6,13.312C57.85,26.044,57.85,0,66.385,0c8.061,0,8.061,39.935,16.6,39.935,8.061,0,8.061-16.205,16.6-16.205,8.061,0,16.6,13.89,16.6,13.89" transform="translate(0 15.615)" fill="none" stroke="#5c4728" stroke-linecap="round" stroke-width="1"/>
  </g>
</svg>
