<svg xmlns="http://www.w3.org/2000/svg" width="54.667" height="54.667" viewBox="0 0 54.667 54.667">
  <g id="Group_14937" data-name="Group 14937" transform="translate(0)">
    <path id="Path_44613" data-name="Path 44613" d="M39.267,15.578A16.4,16.4,0,0,0,37.444,48.27V50.2a1.824,1.824,0,0,1-1.822,1.822H6.467A1.824,1.824,0,0,1,4.644,50.2V17.4h7.289A5.473,5.473,0,0,0,17.4,11.933V4.644H35.622a1.824,1.824,0,0,1,1.822,1.822v5.467a1.822,1.822,0,0,0,3.644,0V6.467A5.473,5.473,0,0,0,35.622,1H15.578a1.819,1.819,0,0,0-1.29.536L1.536,14.288A1.839,1.839,0,0,0,1,15.578V50.2a5.473,5.473,0,0,0,5.467,5.467H35.622A5.473,5.473,0,0,0,41.089,50.2V48.27a16.4,16.4,0,0,0-1.822-32.692ZM13.756,7.221v4.712a1.824,1.824,0,0,1-1.822,1.822H7.221ZM51.876,30.155H43.665l5.8-5.8A12.673,12.673,0,0,1,51.876,30.155ZM39.267,19.222a12.664,12.664,0,0,1,7.624,2.553L39.267,29.4l-7.624-7.626A12.664,12.664,0,0,1,39.267,19.222Zm0,25.511a12.731,12.731,0,0,1-10.2-20.381l8.912,8.912a1.844,1.844,0,0,0,1.288.536h12.61A12.763,12.763,0,0,1,39.267,44.733Z" transform="translate(-1 -1)" fill="#009640"/>
    <path id="Path_44614" data-name="Path 44614" d="M14.111,12H6.822a1.822,1.822,0,0,0,0,3.644h7.289a1.822,1.822,0,1,0,0-3.644Z" transform="translate(2.289 8.044)" fill="#009640"/>
    <path id="Path_44615" data-name="Path 44615" d="M14.111,16H6.822a1.822,1.822,0,0,0,0,3.644h7.289a1.822,1.822,0,0,0,0-3.644Z" transform="translate(2.289 11.333)" fill="#009640"/>
    <path id="Path_44616" data-name="Path 44616" d="M14.111,20H6.822a1.822,1.822,0,0,0,0,3.644h7.289a1.822,1.822,0,0,0,0-3.644Z" transform="translate(2.289 14.622)" fill="#009640"/>
  </g>
</svg>
