<svg xmlns="http://www.w3.org/2000/svg" width="14.001" height="14" viewBox="0 0 14.001 14">
  <g id="Iconly_Bold_Edit" data-name="Iconly/Bold/Edit" transform="translate(0.001)">
    <g id="Edit" transform="translate(0 0)">
      <path id="Edit-2" data-name="Edit" d="M8.773,14a.8.8,0,0,1,0-1.592h4.442a.8.8,0,0,1,0,1.592ZM.659,13.67.04,10.986a1.659,1.659,0,0,1,.314-1.4L5.2,3.32a.243.243,0,0,1,.33-.042L7.568,4.9a.659.659,0,0,0,.5.142.735.735,0,0,0,.636-.811.817.817,0,0,0-.256-.493L6.47,2.149a.294.294,0,0,1-.05-.409l.768-1a2.009,2.009,0,0,1,2.946-.2l1.147.911a2.383,2.383,0,0,1,.891,1.363,1.868,1.868,0,0,1-.379,1.588L4.959,13.244a1.635,1.635,0,0,1-1.271.636l-2.723.034A.312.312,0,0,1,.659,13.67Z" transform="translate(0 0.001)" fill="#5c4728"/>
    </g>
  </g>
</svg>
