<svg xmlns="http://www.w3.org/2000/svg" width="15" height="12" viewBox="0 0 15 12">
  <g id="Iconly_Bold_Show" data-name="Iconly/Bold/Show" transform="translate(0 0)">
    <g id="Show">
      <path id="Show-2" data-name="Show" d="M7.492,12C4.4,12,1.611,9.836.044,6.211a.551.551,0,0,1,0-.429C1.609,2.161,4.393,0,7.492,0H7.5a6.98,6.98,0,0,1,4.3,1.535,10.661,10.661,0,0,1,3.154,4.247.545.545,0,0,1,0,.429C13.389,9.836,10.6,12,7.5,12ZM4.573,6A2.924,2.924,0,1,0,7.5,3.091,2.918,2.918,0,0,0,4.573,6Zm1.1,0a1.871,1.871,0,0,1,.036-.356h.036a1.5,1.5,0,0,0,1.5-1.44A1.434,1.434,0,0,1,7.5,4.18,1.815,1.815,0,1,1,5.672,6Z" transform="translate(0 0)" fill="#5c4728"/>
    </g>
  </g>
</svg>
