<svg id="Iconly_Bold_Delete" data-name="Iconly/Bold/Delete" xmlns="http://www.w3.org/2000/svg" width="13" height="14" viewBox="0 0 13 14">
  <g id="Delete" transform="translate(0.001 0.001)">
    <path id="Delete-2" data-name="Delete" d="M3.707,13.973A2.078,2.078,0,0,1,1.59,11.994C1.364,10,.985,5.29.979,5.242a.544.544,0,0,1,.137-.391.519.519,0,0,1,.378-.164H11.511a.533.533,0,0,1,.378.164.514.514,0,0,1,.131.391c0,.048-.385,4.766-.605,6.752a2.08,2.08,0,0,1-2.164,1.979C8.317,13.993,7.4,14,6.5,14,5.548,14,4.614,13.993,3.707,13.973ZM.516,3.564A.519.519,0,0,1,0,3.05V2.784a.514.514,0,0,1,.516-.513H2.621a.92.92,0,0,0,.9-.711l.111-.478A1.426,1.426,0,0,1,5.009,0H7.991A1.427,1.427,0,0,1,9.365,1.048l.118.511a.918.918,0,0,0,.9.711h2.105A.514.514,0,0,1,13,2.784V3.05a.519.519,0,0,1-.515.514Z" transform="translate(0 0)" fill="#5c4728"/>
  </g>
</svg>
