<svg xmlns="http://www.w3.org/2000/svg" width="20" height="20" viewBox="0 0 20 20">
  <g id="Iconly_Bold_Search" data-name="Iconly/Bold/Search" transform="translate(0 0)">
    <g id="Search" transform="translate(0 0)">
      <path id="Search-2" data-name="Search" d="M17.741,19.608l-2.119-2.43a1.083,1.083,0,0,1,0-1.524.985.985,0,0,1,1.392,0l2.554,2.062h.045a1.348,1.348,0,0,1,0,1.892,1.313,1.313,0,0,1-1.872,0ZM0,8.669A8.624,8.624,0,0,1,8.578,0a8.529,8.529,0,0,1,6.065,2.54,8.714,8.714,0,0,1,2.513,6.13,8.624,8.624,0,0,1-8.578,8.67A8.624,8.624,0,0,1,0,8.669Z" transform="translate(0 -0.001)" fill="#fff"/>
    </g>
  </g>
</svg>
