<svg xmlns="http://www.w3.org/2000/svg" width="340.797" height="88.395" viewBox="0 0 340.797 88.395">
  <g id="Group_16034" data-name="Group 16034" transform="translate(22083.867 10317.238)">
    <g id="Ministry_of_Interior_Saudi_Arabia" transform="translate(-21831.465 -10317.238)">
      <g id="Group_16033" data-name="Group 16033" transform="translate(0 0)">
        <path id="Path_45037" data-name="Path 45037" d="M104.354,73.674c-.158.12-1.314.917-2.553,1.77q.146-.966.24-1.95c1.255-1.343,2.9-3.1,3.078-3.277.494-.671-.351-1.262-.986-.607-.256.264-1.076,1.129-1.963,2.065.025-.547.04-1.1.04-1.651,0-.281-.011-.56-.017-.84,1.019-1.114,2.122-2.319,2.412-2.639.569-.631-.032-1.379-.626-.878-.114.132-.955,1.058-1.85,2.042-.046-.716-.107-1.429-.195-2.133.963-1.013,2-2.11,2.277-2.4.543-.573,0-1.281-.561-.828-.116.127-.995,1.078-1.887,2.043-.115-.72-.254-1.431-.41-2.135.937-1.066,2.055-2.341,2.18-2.488.354-.566-.358-.985-.824-.423-.2.243-.881,1.058-1.59,1.908-.161-.639-.344-1.268-.54-1.893.678-1.063,1.473-2.31,1.675-2.621.368-.566-.2-1.078-.6-.612-.086.138-.751,1.275-1.368,2.329-.176-.516-.367-1.025-.567-1.531.616-1.147,1.387-2.583,1.574-2.926.324-.592-.277-1.061-.643-.564-.081.152-.725,1.47-1.284,2.619-.3-.711-.632-1.407-.98-2.094.555-.954,1.163-2,1.329-2.274.323-.534-.217-.989-.572-.545-.074.127-.6,1.163-1.1,2.143-.282-.53-.58-1.05-.888-1.564.444-.923.94-1.952,1.075-2.22.262-.515-.264-.9-.563-.465-.062.125-.475,1.169-.851,2.125q-.433-.694-.9-1.364c.345-.94.77-2.1.884-2.38.2-.5-.321-.809-.562-.383-.052.137-.377,1.355-.632,2.329-.378-.53-.766-1.051-1.171-1.558.248-.9.556-2,.64-2.278.151-.48-.358-.734-.553-.317-.039.135-.229,1.329-.373,2.244q-.656-.8-1.361-1.567c.162-.893.358-1.948.417-2.219.106-.492-.424-.7-.58-.267-.026.132-.1,1.229-.162,2.13-.493-.521-1-1.023-1.527-1.513.037-.8.079-1.658.1-1.9.037-.478-.489-.606-.582-.178-.007.117.064.967.131,1.741-.581-.531-1.184-1.04-1.8-1.532.005-.856.013-2.02.022-2.306.015-.466-.5-.567-.573-.146,0,.151.179,1.466.287,2.239q-1.04-.815-2.143-1.553c0-.738-.009-1.94-.031-2.085-.123-.406-.621-.241-.547.218.035.217.143.944.247,1.647-.615-.4-1.245-.783-1.885-1.148-.071-.853-.18-2.16-.207-2.472-.041-.473-.574-.513-.6-.081.019.181.37,1.834.484,2.368-.544-.3-1.1-.587-1.659-.861-.115-.876-.275-2.081-.32-2.384-.073-.49-.633-.5-.627-.045.029.172.347,1.564.5,2.214a35.307,35.307,0,0,0-4.422-1.739l-.657.075.661.392A33.98,33.98,0,0,1,81.745,38.5h-.027s-2.309.587-2.526.657c-.4.2-.142.7.327.536.34-.115,1.854-.66,2.661-.95l.035.02.094.158s-.006-.041-.014-.112c.634.362,1.259.74,1.867,1.141h-.181s-2.318.5-2.525.572c-.386.2-.128.669.319.51l2.614-.928c.63.422,1.246.861,1.845,1.324.023.158.037.254.037.254l.03-.2c.116.09.229.185.345.277-.619-.073-2.61-.307-3-.36-.46-.063-.612.441-.2.553.212.024,2.663-.043,2.663-.043l.594-.105q.887.71,1.726,1.475l-.065-.014s-2.606-.163-2.819-.143c-.413.1-.273.611.191.559.355-.04,2.07-.186,2.853-.252.819.757,1.6,1.551,2.343,2.386-.351-.027-2.8-.217-3.006-.2-.428.1-.293.623.184.579.367-.033,2.164-.138,2.987-.185q.7.8,1.355,1.647c-.925-.125-2.469-.329-2.63-.329-.455.068-.356.627.147.621.328-.005,1.766.019,2.73.037q.582.775,1.119,1.582c-1.022.016-2.373.039-2.523.058-.472.132-.294.711.237.637.305-.043,1.552-.181,2.552-.292q.66,1.021,1.249,2.09c-1.14-.064-2.819-.156-2.992-.152-.519.092-.389.731.187.707.36-.014,1.936-.043,3.064-.064q.6,1.143,1.119,2.336c-1.223-.223-2.9-.527-3.078-.55-.568.015-.533.718.087.787.384.041,2.05.249,3.267.4q.472,1.15.859,2.342c-1.256-.395-2.785-.874-2.958-.921-.613-.074-.686.684-.032.856.381.1,1.976.532,3.236.874q.319,1.069.568,2.166c-1.229-.464-2.531-.956-2.694-1.015-.654-.131-.8.681-.106.92.361.125,1.757.612,3.007,1.049q.253,1.289.409,2.613c-1.313-.64-2.757-1.346-2.93-1.432-.686-.218-.936.637-.224.976l3.261,1.539c.081.961.126,1.932.126,2.914,0,.1,0,.2,0,.294-1.256-.968-2.646-2.041-2.81-2.172-.67-.391-1.132.451-.461.973.378.294,1.944,1.494,3.236,2.484q-.062,1.371-.23,2.71c-1.115-1.265-2.331-2.652-2.472-2.823-.62-.557-1.29.225-.7.922.34.4,1.783,2.061,2.946,3.4q-.171,1.009-.4,2c-1.13-1.23-2.268-2.473-2.409-2.641-.669-.589-1.378.256-.738,1,.327.378,1.6,1.8,2.771,3.109-.24.854-.514,1.7-.816,2.52-1.063-1.549-2.3-3.357-2.43-3.572-.579-.678-1.4.059-.873.881.31.485,1.67,2.53,2.735,4.127q-.526,1.25-1.147,2.446c-.787-1.686-1.687-3.619-1.782-3.848-.46-.764-1.391-.171-1,.726.229.528,1.235,2.762,2.024,4.512q-.752,1.3-1.616,2.524c-.516-1.863-1.153-4.176-1.211-4.433-.326-.83-1.343-.4-1.111.548.148.6.855,3.3,1.352,5.2q-.84,1.085-1.766,2.1c-.238-2.061-.537-4.667-.554-4.951-.2-.932-1.344-.658-1.264.382.05.677.347,3.792.549,5.882q-.9.881-1.859,1.7c-.057-2.209-.125-5.032-.114-5.338-.112-1.006-1.354-.834-1.38.274-.015.721-.015,4.038-.013,6.271q-1.2.911-2.491,1.713c.091-2.322.211-5.226.246-5.544-.041-1.074-1.369-.988-1.48.184-.069.732-.3,4-.461,6.354q-1.45.794-2.983,1.446c.6-2.426,1.4-5.667,1.513-6,.191-1.121-1.2-1.324-1.573-.136-.249.79-1.307,4.521-1.988,6.932a33.952,33.952,0,0,1-10.2,1.9,33.954,33.954,0,0,1-10.2-1.9c-.681-2.411-1.74-6.142-1.988-6.932-.373-1.188-1.765-.985-1.572.136.111.336.915,3.577,1.513,6Q52.766,99.1,51.314,98.3c-.162-2.353-.392-5.622-.462-6.354-.112-1.172-1.438-1.258-1.481-.184.036.318.155,3.222.245,5.544q-1.283-.8-2.49-1.713c0-2.233,0-5.55-.014-6.271-.025-1.108-1.267-1.28-1.38-.274.013.306-.057,3.129-.114,5.338q-.961-.815-1.859-1.7c.2-2.09.5-5.205.55-5.882.079-1.04-1.067-1.314-1.265-.382-.017.284-.315,2.89-.554,4.951q-.924-1.013-1.766-2.1c.5-1.9,1.206-4.595,1.353-5.2.233-.95-.784-1.379-1.111-.548-.059.257-.7,2.57-1.212,4.433q-.86-1.222-1.615-2.524c.789-1.749,1.8-3.983,2.024-4.512.387-.9-.544-1.49-1-.726-.095.23-.995,2.162-1.782,3.848q-.62-1.2-1.147-2.446c1.065-1.6,2.425-3.642,2.736-4.127.529-.822-.293-1.559-.872-.881-.133.216-1.368,2.023-2.43,3.572q-.457-1.236-.817-2.52c1.168-1.305,2.443-2.732,2.77-3.109.64-.739-.069-1.584-.738-1-.14.168-1.278,1.411-2.409,2.641q-.232-.987-.4-2c1.163-1.337,2.607-3,2.947-3.4.591-.7-.079-1.479-.7-.922-.141.171-1.358,1.558-2.471,2.823q-.169-1.34-.231-2.71C34.909,69,36.474,67.8,36.852,67.5c.671-.522.209-1.364-.462-.973-.163.132-1.554,1.2-2.809,2.172,0-.1,0-.2,0-.294,0-.982.045-1.954.126-2.914,1.332-.629,2.874-1.356,3.261-1.539.713-.339.463-1.195-.223-.976-.173.086-1.617.791-2.931,1.432q.156-1.323.41-2.613c1.25-.436,2.645-.924,3.006-1.049.691-.239.548-1.051-.105-.92-.163.059-1.467.551-2.694,1.015q.248-1.1.568-2.166c1.262-.341,2.856-.774,3.237-.874.653-.171.58-.93-.032-.856-.173.048-1.7.527-2.958.921q.387-1.191.858-2.342c1.216-.155,2.883-.362,3.266-.4.621-.068.656-.772.087-.787-.179.023-1.854.327-3.078.55q.516-1.192,1.119-2.336c1.128.02,2.7.049,3.063.064.577.024.706-.615.188-.707-.174,0-1.853.088-2.992.152q.586-1.069,1.248-2.09c1,.11,2.245.249,2.552.292.531.074.709-.505.238-.637-.151-.019-1.5-.042-2.523-.058q.537-.808,1.119-1.582c.963-.018,2.4-.042,2.73-.037.5.007.6-.552.147-.621-.161,0-1.706.2-2.631.329q.651-.847,1.355-1.647c.822.047,2.62.152,2.986.185.478.044.612-.481.185-.579-.2-.014-2.656.175-3.006.2.74-.834,1.524-1.628,2.341-2.386.785.066,2.5.212,2.854.252.464.052.6-.456.192-.559-.213-.02-2.82.143-2.82.143l-.064.014q.837-.767,1.726-1.475l.593.105s2.45.068,2.663.043c.41-.112.258-.616-.2-.553-.388.052-2.381.286-3,.36.116-.092.229-.186.345-.277l.03.2.037-.254c.6-.462,1.216-.9,1.845-1.324l2.613.928c.447.159.7-.311.319-.51-.207-.069-2.525-.572-2.525-.572H48.92c.608-.4,1.233-.779,1.868-1.141l-.014.112.094-.158.035-.02c.807.291,2.322.835,2.661.95.469.16.731-.335.327-.536-.217-.069-2.526-.657-2.526-.657h-.026a33.928,33.928,0,0,1,4.426-2.024l.662-.392-.658-.075a35.39,35.39,0,0,0-4.421,1.739c.149-.649.467-2.041.5-2.214.006-.452-.553-.445-.627.045-.045.3-.2,1.508-.319,2.384-.561.274-1.115.559-1.659.861.114-.534.465-2.186.484-2.368-.022-.432-.557-.392-.6.081-.027.312-.136,1.619-.207,2.472-.641.365-1.271.745-1.885,1.148.1-.7.211-1.429.246-1.647.074-.459-.424-.624-.547-.218-.021.145-.028,1.347-.03,2.085q-1.1.739-2.143,1.553c.109-.773.29-2.088.287-2.239-.07-.42-.588-.32-.573.146.009.286.017,1.45.022,2.306-.616.493-1.218,1-1.8,1.532.067-.773.137-1.624.13-1.741-.092-.428-.619-.3-.582.178.019.241.059,1.1.1,1.9-.524.49-1.034.993-1.527,1.513-.06-.9-.137-2-.163-2.13-.156-.432-.686-.225-.58.267.059.271.254,1.326.417,2.219q-.7.764-1.362,1.567c-.143-.914-.333-2.109-.372-2.244-.194-.417-.7-.163-.554.317.086.276.394,1.383.641,2.278-.4.507-.793,1.028-1.17,1.558-.256-.974-.58-2.192-.632-2.329-.241-.426-.761-.114-.562.383.113.284.539,1.44.883,2.38q-.463.671-.9,1.364c-.376-.957-.788-2-.85-2.125-.3-.434-.826-.05-.565.465.136.268.633,1.3,1.077,2.22-.308.515-.606,1.035-.888,1.564-.5-.98-1.029-2.015-1.1-2.143-.356-.443-.895.011-.572.545.165.274.774,1.32,1.328,2.274-.347.686-.676,1.383-.98,2.094-.559-1.148-1.2-2.467-1.283-2.619-.367-.5-.968-.028-.644.564.188.343.958,1.778,1.574,2.926-.2.5-.39,1.015-.567,1.531-.617-1.055-1.281-2.192-1.368-2.329-.4-.467-.968.046-.6.612.2.31,1,1.557,1.675,2.621-.195.624-.378,1.254-.54,1.893-.708-.849-1.389-1.664-1.59-1.908-.466-.562-1.177-.143-.824.423.125.146,1.244,1.421,2.18,2.488-.156.7-.3,1.415-.409,2.135-.892-.965-1.771-1.916-1.888-2.043-.56-.453-1.1.255-.561.828.274.29,1.315,1.387,2.277,2.4-.088.7-.148,1.416-.194,2.133-.9-.983-1.736-1.909-1.851-2.042-.592-.5-1.194.247-.624.878.289.32,1.392,1.526,2.411,2.639-.006.28-.017.558-.017.84,0,.553.014,1.1.039,1.651-.887-.936-1.706-1.8-1.963-2.065-.635-.655-1.48-.064-.986.607.182.18,1.824,1.934,3.078,3.277.063.655.143,1.306.241,1.95-1.24-.853-2.4-1.651-2.554-1.77-.784-.425-1.286.558-.5,1.134.4.292,1.941,1.383,3.363,2.388q.246,1.2.573,2.373c-1.388-.848-2.755-1.684-2.931-1.8-.806-.382-1.254.627-.434,1.16.457.3,2.346,1.485,3.926,2.476.241.718.507,1.423.792,2.119-1.553-.546-3.1-1.091-3.3-1.172-.868-.2-1.1.875-.184,1.225.493.189,2.466.912,4.179,1.539q.368.785.771,1.549c-1.769-.084-3.66-.179-3.892-.2-.891.05-.8,1.15.174,1.225.525.041,2.623.171,4.444.283q.513.879,1.073,1.723c-1.847.051-3.939.106-4.184.1-.884.118-.711,1.208.266,1.21.56,0,2.894-.031,4.787-.057q.676.932,1.409,1.818c-1.984.1-4.267.207-4.532.2-.942.137-.744,1.3.3,1.289.627-.006,3.342-.084,5.408-.146q.8.869,1.65,1.686c-2.093.215-4.49.456-4.772.466-.995.189-.73,1.415.378,1.354.685-.036,3.713-.267,5.924-.439q.793.678,1.626,1.308c-2.289.246-5.086.54-5.4.551-1.056.2-.779,1.5.4,1.438.815-.041,4.749-.344,7.089-.526q.671.435,1.363.842c-2.3.448-5.274,1.021-5.6,1.06-1.035.287-.648,1.559.518,1.4.858-.117,5.2-.826,7.431-1.194q.706.347,1.429.663c-2.3.865-5.212,1.952-5.539,2.045-1.033.475-.414,1.737.777,1.374.843-.258,4.956-1.642,7.285-2.429.377.132.756.259,1.138.378-2.15,1.2-4.877,2.722-5.188,2.864-.95.623-.148,1.78.975,1.241.779-.374,4.5-2.29,6.71-3.429a35.947,35.947,0,0,0,16.219,0c2.206,1.138,5.93,3.055,6.711,3.429,1.122.538,1.923-.618.973-1.241-.31-.142-3.038-1.661-5.188-2.864.383-.119.761-.246,1.137-.378,2.331.787,6.443,2.171,7.287,2.429,1.189.363,1.808-.9.776-1.374-.327-.093-3.235-1.18-5.539-2.045q.725-.316,1.43-.663c2.233.368,6.573,1.077,7.431,1.194,1.165.159,1.553-1.113.517-1.4-.324-.039-3.3-.611-5.6-1.06q.692-.407,1.364-.842c2.341.182,6.275.484,7.089.526,1.175.06,1.453-1.24.4-1.438-.315-.01-3.11-.305-5.4-.551q.832-.63,1.625-1.308c2.212.172,5.24.4,5.924.439,1.108.061,1.372-1.165.378-1.354-.281-.01-2.678-.251-4.771-.466q.852-.815,1.65-1.686c2.065.062,4.781.141,5.408.146,1.042.009,1.241-1.152.3-1.289-.266,0-2.549-.106-4.533-.2q.734-.886,1.409-1.818c1.894.026,4.227.057,4.788.057.977,0,1.149-1.092.265-1.21-.246.006-2.337-.049-4.184-.1q.56-.844,1.073-1.723c1.821-.112,3.919-.241,4.443-.283.975-.075,1.065-1.175.174-1.225-.232.021-2.123.116-3.892.2q.4-.765.771-1.549c1.714-.627,3.688-1.35,4.18-1.539.912-.35.683-1.43-.185-1.225-.2.081-1.744.626-3.3,1.172.284-.7.549-1.4.791-2.119,1.58-.991,3.469-2.179,3.926-2.476.819-.533.371-1.543-.433-1.16-.178.119-1.544.955-2.933,1.8.217-.781.41-1.572.574-2.373,1.421-1,2.962-2.095,3.362-2.388C105.639,74.232,105.138,73.25,104.354,73.674Z" transform="translate(-22.721 -27.31)" fill="#009640"/>
        <path id="Path_45038" data-name="Path 45038" d="M57.834,101.622a44.2,44.2,0,0,0,31.253-75.45,44.2,44.2,0,0,0-62.5,62.5A43.9,43.9,0,0,0,57.834,101.622Zm-42.025-44.2A42.028,42.028,0,1,1,28.118,87.14,41.749,41.749,0,0,1,15.809,57.424Z" transform="translate(-13.637 -13.227)" fill="#009640"/>
        <path id="Path_45039" data-name="Path 45039" d="M117.931,98.624a1.157,1.157,0,0,0-2.036.136c-.543,1.086.271,1.086-.951.135q-.911-.87-1.788-1.649a1.007,1.007,0,1,0-1.359-1.175c-9.961-8.36-16.21-7.887-19.662-6.408,8.112-.274,14.6,4.287,18.4,7.561a1.007,1.007,0,1,0,1.361,1.214c1.1,1.012,1.836,1.755,2.162,1.951.909.545,1.29,1.357,2.648.814A2.4,2.4,0,0,0,117.931,98.624Z" transform="translate(-63.929 -61.651)" fill="#009640"/>
        <path id="Path_45040" data-name="Path 45040" d="M107.773,98.624a1.157,1.157,0,0,1,2.037.136c.543,1.086-.272,1.086.95.135q.914-.87,1.788-1.649a1.007,1.007,0,1,1,1.359-1.175c9.961-8.36,16.211-7.887,19.662-6.408-8.112-.274-14.6,4.287-18.4,7.561a1.007,1.007,0,1,1-1.361,1.214c-1.1,1.012-1.836,1.755-2.162,1.951-.909.545-1.29,1.357-2.647.814A2.4,2.4,0,0,1,107.773,98.624Z" transform="translate(-73.898 -61.651)" fill="#009640"/>
        <path id="Path_45041" data-name="Path 45041" d="M121.925,49.424h-2.172a17.3,17.3,0,0,1-.136-2.649c.136-.475.543-.475.95-.407a5.971,5.971,0,0,1,.068-1.9c0-.068-.136-.61,0-.747.252-.252,0-.9-.136-1.086.136.2-.068-.611.272-.543-.068-1.154.068-1.154.068-2.308.34,0,0-.408-.068-.679-.272-.815.407-1.629-.544-2.172-.611-.272-.882.543-1.221.882a1.951,1.951,0,0,0-.068.883c-.544-.2-.544-.815-.815-1.222s-.068-.882-.136-1.357h-.271c-.068.2-.2.339-.272.543a7.378,7.378,0,0,0-.068,1.222c-.135-.2-.407-.272-.543-.407a6.083,6.083,0,0,1-.611-3.462c-.611-.068-.747.882-1.085,1.222-.136.135-.272-.272-.272-.475a3.044,3.044,0,0,1,.543-2.511c.068-.136.814-.679.814-.815a2.59,2.59,0,0,0-1.765.407c-.365.366-.2-1.357.34-1.833a6.177,6.177,0,0,1,2.1-.815c0-.135-.135-.2-.068-.338a7.422,7.422,0,0,0-2.444.135c.135-.679.95-.95,1.561-1.018a15.573,15.573,0,0,1,2.512-.068,1.516,1.516,0,0,0-.543-1.018c-.2-.272-.679-.068-1.018-.137a6.4,6.4,0,0,1,1.969-.067c.407.067.679.475,1.086.611,0-.611.136-1.63-.679-1.833a2.235,2.235,0,0,1,1.9,1.289h.2c.068-.067-.068-.271,0-.338.135-.068.135-.271.2-.407.271-.2.068-1.562.475-1.7.407.135.2,1.493.475,1.7.068.136.068.338.2.407.068.068-.068.271,0,.338h.2a2.236,2.236,0,0,1,1.9-1.289c-.814.2-.678,1.222-.678,1.833.408-.135.678-.544,1.086-.611a6.4,6.4,0,0,1,1.969.067c-.34.068-.815-.135-1.018.137a1.518,1.518,0,0,0-.543,1.018,15.557,15.557,0,0,1,2.511.068c.612.068,1.426.338,1.562,1.018a7.414,7.414,0,0,0-2.444-.135c.068.135-.068.2-.068.338a6.175,6.175,0,0,1,2.1.815c.543.475.657,2.241.34,1.833a1.865,1.865,0,0,0-1.562-.61,8.135,8.135,0,0,0,.611,1.019,3.041,3.041,0,0,1,.543,2.511c0,.2-.136.61-.272.475-.34-.339-.475-1.29-1.087-1.222a6.086,6.086,0,0,1-.61,3.462c-.135.136-.408.2-.544.407a7.411,7.411,0,0,0-.068-1.222c-.068-.2-.2-.34-.271-.543h-.271c-.068.475.135.95-.136,1.357s-.271,1.018-.814,1.222a1.961,1.961,0,0,0-.068-.883c-.34-.339-.611-1.154-1.222-.882-.678.407-.156.875-.61,2.241-.068.271-.34.61,0,.61,0,1.154.2,1.086.136,2.239.339-.068.068.816.2.611-.34.475-.612.816-.068,1.358.136.136-.068.407-.068.475a5.961,5.961,0,0,1,.068,1.9c.407-.068.815-.068.95.407a17.3,17.3,0,0,1-.135,2.649h-2.446Z" transform="translate(-78.105 -20.325)" fill="#009640"/>
        <g id="Group_16031" data-name="Group 16031" transform="translate(26.552 42.041)">
          <path id="Path_45042" data-name="Path 45042" d="M167.645,138.067a.391.391,0,0,0-.2.122.2.2,0,0,0-.023.174.248.248,0,0,0,.109.152,1.093,1.093,0,0,0,.187-.082.593.593,0,0,0,.18-.168.372.372,0,0,0,.032-.112.554.554,0,0,0,.009-.107A.52.52,0,0,0,167.645,138.067Z" transform="translate(-138.711 -135.229)" fill="#009640"/>
          <path id="Path_45043" data-name="Path 45043" d="M151.358,151.219c0,.024-.008.113-.017.271a1.232,1.232,0,0,0-.014.249.311.311,0,0,0,.187.149.567.567,0,0,0,.33-.072,2.981,2.981,0,0,0,.28-.154,1.974,1.974,0,0,0,.209-.15,1.077,1.077,0,0,0-.526-.205A1.459,1.459,0,0,0,151.358,151.219Z" transform="translate(-128.403 -143.674)" fill="#009640"/>
          <path id="Path_45044" data-name="Path 45044" d="M105.437,139.415a1.282,1.282,0,0,0-.185-.037,1.544,1.544,0,0,1-.271-.072,1.617,1.617,0,0,1-.251-.132.433.433,0,0,0-.206-.087,1.389,1.389,0,0,0,.154.338,3.414,3.414,0,0,0,.2.314,2.3,2.3,0,0,0,.3-.171Z" transform="translate(-98.418 -135.904)" fill="#009640"/>
          <path id="Path_45045" data-name="Path 45045" d="M114.537,130.229a11.063,11.063,0,0,1-19.2,0h-7.8a18.239,18.239,0,0,0,34.742,0ZM113.09,133.9a2.952,2.952,0,0,1,.352-.055,2.244,2.244,0,0,1,.362-.046c.032.014.057.089.077.23s.01.225-.012.246a1.156,1.156,0,0,1-.326.078,1.282,1.282,0,0,1-.327.029c-.024-.013-.052-.094-.089-.242S113.074,133.916,113.09,133.9Zm-13.065,2.457a1.2,1.2,0,0,1,.333-.1,1.2,1.2,0,0,1,.082.269,1.059,1.059,0,0,1,.065.282.821.821,0,0,1-.314.126.939.939,0,0,1-.34.054.7.7,0,0,1-.112-.246c-.046-.158-.061-.243-.047-.262A1.322,1.322,0,0,1,100.026,136.358Zm-5.069-4.032a.663.663,0,0,1,.054-.194c.225.067.379.115.471.146.112.036.184.052.2.057a.574.574,0,0,0-.07.212.346.346,0,0,0,.007.193.82.82,0,0,0,.238.078c.144.036.227.059.253.068l-.017.463c-.148-.015-.3-.037-.448-.067a.787.787,0,0,1-.241-.065.938.938,0,0,1-.008-.244c0-.148.012-.224.014-.228q-.114-.038-.224-.077a1.971,1.971,0,0,0-.226-.065A.68.68,0,0,1,94.957,132.326Zm-.762,5.151a1,1,0,0,1-.291-.038,2.478,2.478,0,0,1-.122-.336c-.045-.174-.072-.282-.084-.328-.126-.019-.236-.042-.34-.065a.688.688,0,0,0-.182-.028,1.326,1.326,0,0,1-.122-.372.786.786,0,0,1-.039-.3c.329.06.546.091.632.115a.9.9,0,0,0,.117.019.953.953,0,0,0,.037.317.648.648,0,0,0,.106.277.817.817,0,0,0,.269.058,1.972,1.972,0,0,1,.3.036l.2.649A3.3,3.3,0,0,1,94.194,137.477Zm6.443,1.922c-.2-.076-.4-.151-.592-.232s-.388-.157-.584-.236a2.42,2.42,0,0,0-.77-.081,1.883,1.883,0,0,1-.757-.116l-.978-.554-.008.008-.644-.423a.131.131,0,0,1-.059-.091.117.117,0,0,1,.046-.1l.262-.261c-.049.017-.165.053-.341.1l-.3.073-.455-.352,0,0-.262-.213a.416.416,0,0,1-.17-.434.674.674,0,0,1,.15-.236l-.646.059-.71-.751,0,0-.044-.053-.095-.1.008,0-.358-.428a.309.309,0,0,1-.016-.439c.12-.1.25-.2.384-.293a.832.832,0,0,0-.345-.068c-.328-.018-.512-.09-.556-.209-.068-.163-.142-.36-.234-.583-.122-.322-.207-.525-.253-.613a3.527,3.527,0,0,1,.663.045,2.7,2.7,0,0,1,.733.144,3.114,3.114,0,0,1,.439.236c.209.114.45.238.718.372a.293.293,0,0,0,.1-.063.306.306,0,0,1,.1-.063c.124.015.223.026.3.028.253.017.47.024.647.027a3.454,3.454,0,0,1-.487.295c-.294.169-.587.342-.877.52a4.3,4.3,0,0,0-.439.3.194.194,0,0,0-.008.176,1.23,1.23,0,0,0,.172.237l.082.09.9.917a1,1,0,0,0,.263-.113c.113-.064.222-.127.328-.19.019,0,.166-.011.43-.018s.413-.027.446-.024a.288.288,0,0,1-.029.027l-.091.065c-.08.057-.172.118-.278.183s-.232.134-.378.209a.214.214,0,0,0-.135.211.327.327,0,0,0,.13.232l.1.079.6.442,1.257-1.463c.179-.046.316-.084.408-.113.288-.088.473-.146.556-.165a5.589,5.589,0,0,1-.728.883c-.5.584-.8.928-.9,1.026s-.1.168-.012.217l.046.029h0l1.178.647a1.921,1.921,0,0,0,.359.129,1.055,1.055,0,0,0,.3.04,2.97,2.97,0,0,0-.24-.319,1.458,1.458,0,0,0-.335-.35,1.044,1.044,0,0,0-.317-.119,1.282,1.282,0,0,0-.321-.019c.238-.1.43-.174.579-.219a1.148,1.148,0,0,1,.806-.076,1.292,1.292,0,0,1,.532.441c.318.389.488.589.49.593a4.614,4.614,0,0,0,.549.427,1.537,1.537,0,0,0,.414.209Zm2.124-1.66a11.462,11.462,0,0,1-.25,1.3,1.959,1.959,0,0,1-.373.754,2.085,2.085,0,0,1-.381.321l.391-2.222a2.324,2.324,0,0,1,.353-.416c.179-.2.293-.323.346-.373Q102.8,137.491,102.761,137.738Zm4.381,1.033c.028.092.072.226.131.4a1.58,1.58,0,0,1,.018.33c0,.16-.013.331-.031.516,0,.044-.03.08-.092.112a.458.458,0,0,1-.18.041l-.7.082v0l-.075.006-.131.015v-.006l-.646.048c-.069,0-.122-.042-.158-.129-.07-.176-.111-.264-.124-.287-.037.014-.091.089-.164.225s-.15.206-.228.208l-1.637-.08a.191.191,0,0,1-.135-.073.165.165,0,0,1-.029-.135l.089-.3a3.071,3.071,0,0,1,.217-.531A.854.854,0,0,1,103.4,139a.3.3,0,0,1,.146-.112c0,.014-.015.073-.04.176s-.04.176-.046.216a.35.35,0,0,0,.009.188.139.139,0,0,0,.138.073l1.442.047a2.9,2.9,0,0,0-.14-.666c-.092-.357-.135-.543-.135-.55s.06-.137.175-.376.171-.364.191-.394c.051.171.115.4.19.681.028.1.067.245.117.427a5.214,5.214,0,0,0,.243.694c.055.1.115.149.179.142l.241-.022.689-.077c.011-.009.013-.038,0-.089a6.549,6.549,0,0,0-.25-.792c-.07-.207-.144-.428-.22-.664l-.108-.07a.528.528,0,0,1-.118-.093c.059-.18.11-.338.152-.464.077-.246.128-.378.161-.382a.973.973,0,0,1,.052.145.351.351,0,0,0,.119.193c.124.07.237.131.34.177a1.4,1.4,0,0,0,.4.138l-.336.73Q107,138.31,107.143,138.771Zm1.65,1.1-1.023-2.038a2.088,2.088,0,0,1,.053-.495c.035-.238.058-.388.075-.452q.193.348.313.573a11.794,11.794,0,0,1,.581,1.2,1.667,1.667,0,0,1,.135.786A1.445,1.445,0,0,1,108.792,139.869Zm1-3.1c-.015.053-.033.115-.055.178a1.491,1.491,0,0,1-.363-.014.964.964,0,0,1-.3-.077c.035-.161.061-.282.084-.367.014-.059.028-.11.039-.148a1.382,1.382,0,0,0,.315.071.74.74,0,0,0,.271.011c.017-.008.037-.067.057-.179a.818.818,0,0,1,.048-.2l.662.032a1.836,1.836,0,0,1,0,.338c-.012.122-.028.191-.046.2a2.319,2.319,0,0,1-.232,0c-.257-.012-.4-.024-.443-.032A.642.642,0,0,1,109.793,136.767Zm2.076,1.638a1.181,1.181,0,0,1-.232.3,1.406,1.406,0,0,1-.331.262,2.239,2.239,0,0,1-.511.18c-.227.032-.377-.017-.452-.153a1.058,1.058,0,0,1-.1-.536c0-.09.017-.3.04-.627a3.038,3.038,0,0,1,.031-.338c.009-.066.034-.207.072-.429.126.022.222.034.292.046.229.033.406.061.532.089a.92.92,0,0,1,.314.118.981.981,0,0,1,.221.193c.026.032.047.06.064.084s.03.048.043.07a4.758,4.758,0,0,1,.072.493A.818.818,0,0,1,111.868,138.4Zm2.011.343a3.483,3.483,0,0,1-1.023.332c-.493.082-.759.085-.8.027-.02-.027-.014-.048.018-.065.143-.039.287-.079.428-.127a2.292,2.292,0,0,0,.406-.175,1.257,1.257,0,0,0,.278-.3,2.154,2.154,0,0,0,.284-.535c.028-.074.07-.19.122-.35.06-.227.047-.375-.04-.451a1.412,1.412,0,0,0-.611-.126c-.11-.013-.267-.022-.479-.038-.063-.13-.112-.225-.144-.287a1.444,1.444,0,0,1-.148-.36c.421.047.654.072.687.075a1.918,1.918,0,0,1,.9.388,1.859,1.859,0,0,1,.323.341,1.33,1.33,0,0,1,.2.795A1.046,1.046,0,0,1,113.879,138.748Zm-1.1-3.256a1.641,1.641,0,0,1-.232-.41c-.1-.2-.171-.337-.193-.395.255.127.465.23.625.312a13.944,13.944,0,0,1,1.236.683,1.692,1.692,0,0,1,.579.561,1.24,1.24,0,0,1,.129.41Zm5.045-.457c-.36.355-.577.519-.657.495a.645.645,0,0,1-.146.559,3.487,3.487,0,0,1-.935.625c-.484.218-.747.308-.8.268s-.058-.067-.024-.1c.151-.081.307-.154.457-.232a1.461,1.461,0,0,0,.376-.271,1.253,1.253,0,0,0,.248-.864c-.018-.414-.115-.65-.288-.722a1.5,1.5,0,0,0-.651.048c-.113.016-.278.047-.492.091-.1-.1-.177-.178-.227-.225a1.394,1.394,0,0,1-.252-.293c.439-.066.679-.108.712-.113a2.147,2.147,0,0,1,1.007.114,1.683,1.683,0,0,1,.422.232,1.63,1.63,0,0,1,.5.6,1.216,1.216,0,0,1,.088.262,5.175,5.175,0,0,1,.3-.457,2.4,2.4,0,0,0,.342-.685,1.883,1.883,0,0,0-.052-.961c-.11-.3-.273-.471-.472-.509a.626.626,0,0,0-.132-.008,1.213,1.213,0,0,1,.3.3.477.477,0,0,1-.114.416.608.608,0,0,1-.516.285,1.692,1.692,0,0,1-.509-.1,1.531,1.531,0,0,1-.516-.446c-.215-.241-.281-.412-.2-.529a1.036,1.036,0,0,1,.618-.239,2.667,2.667,0,0,1,.936-.039,2.181,2.181,0,0,1,1.172.542.794.794,0,0,1,.214,1.041A7.069,7.069,0,0,1,117.823,135.036Z" transform="translate(-87.533 -130.229)" fill="#009640"/>
        </g>
        <g id="Group_16032" data-name="Group 16032" transform="translate(16.302 42.041)">
          <path id="Path_45046" data-name="Path 45046" d="M72.649,137.865l.283-.095a.7.7,0,0,0-.152-.067,1.387,1.387,0,0,1-.225-.107,1.244,1.244,0,0,1-.184-.158.341.341,0,0,0-.166-.1,1.4,1.4,0,0,0,.034.327,1.1,1.1,0,0,0,.091.308A2.477,2.477,0,0,0,72.649,137.865Z" transform="translate(-67.462 -134.781)" fill="#009640"/>
          <path id="Path_45047" data-name="Path 45047" d="M120.174,179.691a.879.879,0,0,1-.212.079.316.316,0,0,0-.157.1,1.474,1.474,0,0,0,.308.139,2.367,2.367,0,0,0,.311.1,2.6,2.6,0,0,0,.028-.352c.005-.07.01-.167.019-.305a.622.622,0,0,0-.117.1A.965.965,0,0,1,120.174,179.691Z" transform="translate(-97.96 -161.763)" fill="#009640"/>
          <path id="Path_45048" data-name="Path 45048" d="M82.847,157.877a1.3,1.3,0,0,0-.135,0,.191.191,0,0,0-.1.209.457.457,0,0,0,.12.24c.048.061.086.084.113.068a1.091,1.091,0,0,0,.19-.254c.047-.1.044-.162.01-.206A.319.319,0,0,0,82.847,157.877Z" transform="translate(-74.13 -147.942)" fill="#009640"/>
          <path id="Path_45049" data-name="Path 45049" d="M106.787,130.229a20.884,20.884,0,0,1-40.231,0h-7.55a28.189,28.189,0,0,0,55.271,0Zm1.7,1.638c.545-.018,1.018-.014,1.419.013a2.127,2.127,0,0,1,.795.189,1.429,1.429,0,0,1,.352.252l-2.446.041a1.815,1.815,0,0,1-.426-.225c-.2-.12-.329-.2-.39-.241C108.078,131.881,108.31,131.871,108.491,131.867ZM80.818,146.014a1.35,1.35,0,0,0,.143-.114.959.959,0,0,0,.147.231c.08.1.134.16.163.167s.077-.029.18-.111a1.435,1.435,0,0,1,.183-.125l.37.42c-.089.086-.185.18-.284.261s-.156.12-.171.117a1.808,1.808,0,0,1-.2-.2c-.118-.128-.176-.2-.178-.2-.055.037-.11.073-.165.1a.813.813,0,0,0-.155.114.751.751,0,0,1-.229-.214,1.1,1.1,0,0,1-.135-.21C80.644,146.139,80.753,146.059,80.818,146.014ZM65.287,131.889a.657.657,0,0,1,.1-.2c.185.093.326.158.406.2s.152.079.171.086a.822.822,0,0,0-.129.217.433.433,0,0,0-.06.206.808.808,0,0,0,.209.114,1.8,1.8,0,0,1,.209.116l-.163.479c-.133-.045-.27-.093-.4-.15a.685.685,0,0,1-.2-.108,1.252,1.252,0,0,1,.075-.248,1.425,1.425,0,0,1,.069-.227c-.064-.036-.124-.071-.183-.108a.977.977,0,0,0-.185-.1A.912.912,0,0,1,65.287,131.889Zm-1.481,6.027a4.185,4.185,0,0,1-.433-.087.634.634,0,0,1-.224-.086,1.575,1.575,0,0,1,.031-.3c.027-.184.027-.274.031-.281-.015,0-.085-.032-.215-.083a1.655,1.655,0,0,0-.209-.08,1.4,1.4,0,0,1,.032-.324.786.786,0,0,1,.053-.26c.226.062.37.111.451.142s.143.055.189.07a.933.933,0,0,0-.091.277c-.024.134-.029.217,0,.243a.354.354,0,0,0,.135.064l.325.119Zm.034-1.744h0l-.022-.046-.025-.049h0l-.3-.673h-.005l-.295-.723h-.006l-.229-.579a.3.3,0,0,1,.147-.381c.148-.068.3-.133.453-.2a.764.764,0,0,0-.313-.1c-.286-.064-.432-.151-.436-.258a3.723,3.723,0,0,0-.054-.528,3.641,3.641,0,0,0-.056-.56,2.968,2.968,0,0,1,.606.094,2.133,2.133,0,0,1,.645.2,3.408,3.408,0,0,1,.338.27c.166.134.344.289.545.457a.3.3,0,0,0,.113-.044.34.34,0,0,1,.114-.042c.109.036.2.061.264.079.243.059.436.109.6.148a3.736,3.736,0,0,1-.545.194q-.493.156-.978.319c-.324.11-.493.172-.509.185a.172.172,0,0,0-.066.152c.015.052.036.134.075.239l.016.042.312.753h0l.381.821.673,1.285a2.551,2.551,0,0,0,.3-.262,2,2,0,0,0,.314-.365c.078.014.212.03.4.045.127.009.269.02.436.025-.083.114-.156.206-.213.27a2.029,2.029,0,0,1-.492.441,1.257,1.257,0,0,1-.221.1c-.069.027-.181.06-.335.1a.565.565,0,0,1-.087.022c-.04.007-.148.033-.325.075a2.641,2.641,0,0,1-.375.071Zm1.492,2.041.446-.144.691,1.045a.651.651,0,0,0,.258-.288,1,1,0,0,0,.123-.348c.006-.043.015-.109.026-.2a.4.4,0,0,0-.011-.158l.863-.156a.8.8,0,0,1-.013.274,1.179,1.179,0,0,1-.139.414,1.634,1.634,0,0,1-.3.409,1.339,1.339,0,0,1-.338.262.41.41,0,0,1-.073.043l-.134.067a2.867,2.867,0,0,1-.508.206c-.206.058-.333.043-.388-.04L65,138.311C65.02,138.309,65.131,138.278,65.332,138.214Zm12.578,8.958c-.036.094-.088.232-.154.412a2.309,2.309,0,0,1-.188.3c-.1.138-.21.285-.333.439a.131.131,0,0,1-.127.052.308.308,0,0,1-.146-.042l-.692-.277.005-.01-.677-.3v0l-.039-.019L75.5,147.7v0l-.64-.315,0,0-.471-.241.036-.233-.232.12-.751-.432a.3.3,0,0,0,0-.054c-.013-.064-.025-.109-.045-.123s-.046,0-.1.018-.1.023-.12.01l-.788-.5a1.133,1.133,0,0,0,0-.116c0-.037-.009-.059-.018-.066a.36.36,0,0,1-.1.035.247.247,0,0,1-.177-.042l-.442-.309.007-.008-.6-.43,0,.006-.626-.5,0,0L69.811,144l.145-.394c-.084.029-.157.049-.226.068a1.877,1.877,0,0,1-.241.052l-.846-.8.01-.008-.525-.523h0l-.022-.024-.052-.052,0,0-.458-.5-.006,0-.336-.386a2.418,2.418,0,0,1-1,.052,1.086,1.086,0,0,1-.773-.335,1.533,1.533,0,0,1-.275-.707c-.075-.318-.057-.507.034-.551a.049.049,0,0,1,.069.02,2.09,2.09,0,0,0,.12.281,1.177,1.177,0,0,0,.13.256,1.12,1.12,0,0,0,.157.181.734.734,0,0,0,.229.141,3.948,3.948,0,0,0,.508.23,2.483,2.483,0,0,0,.545.115,1.815,1.815,0,0,1-.218-.329c-.14-.32-.109-.534.117-.659a2.963,2.963,0,0,1,.851-.221c.507-.088.823-.064.949.082.084.1.051.265-.1.485a2.571,2.571,0,0,1-.587.617l.14.168h0l.62.675h0l.58.572-.005,0,.714.669a.548.548,0,0,0,.037-.263.4.4,0,0,0-.14-.3c-.04-.03-.076-.06-.113-.082l-.081-.053a3.019,3.019,0,0,1,.3-.1c.189-.057.347-.106.463-.134a.329.329,0,0,1,.167.01,1.145,1.145,0,0,1,.492.244.629.629,0,0,1,.226.567.6.6,0,0,1-.163.407.717.717,0,0,1-.3.139,1.654,1.654,0,0,0-.268.094l.209.169,0,0,.636.507h0l.745.533,0,0,.466.322a.152.152,0,0,0,.158-.025,1.01,1.01,0,0,0,.128-.138q.232-.115.351-.167a1.409,1.409,0,0,1,.444-.155,3.169,3.169,0,0,1-.463.421c-.075.063-.185.143-.329.246l.657.417a.093.093,0,0,0,.109,0,.435.435,0,0,0,.107-.108c.017-.022.034-.049.056-.082a5.729,5.729,0,0,1,.561-.274.888.888,0,0,1,.22-.063,1.257,1.257,0,0,0-.094.109q-.047.063-.19.261a3.9,3.9,0,0,1-.291.305l-.078.082.44.244c.013.006.026,0,.043-.029a.925.925,0,0,0,.068-.133.972.972,0,0,1,.068-.135c.124-.071.256-.139.393-.2.159-.074.256-.11.285-.094l-.308.54a.341.341,0,0,0-.042.212c.005.077.027.125.063.145l.077.042.81.394.759.333,0,.005.525.21c.013,0,.031-.03.055-.078a7.6,7.6,0,0,0,.289-.813c.071-.214.146-.442.222-.68-.02-.051-.034-.089-.042-.113a.541.541,0,0,1-.04-.137q.232-.2.4-.339c.218-.19.341-.279.37-.267a1.3,1.3,0,0,1-.047.152.352.352,0,0,0-.022.226,2.619,2.619,0,0,0,.163.314,1.185,1.185,0,0,0,.216.315l-.718.478C78.093,146.688,78.028,146.857,77.91,147.171Zm1.632-.619a13.38,13.38,0,0,1-.419,1.321,2.379,2.379,0,0,1-.433.737,1.919,1.919,0,0,1-.36.3l.637-2.254a2.409,2.409,0,0,1,.371-.4c.189-.183.312-.3.369-.344C79.642,146.174,79.587,146.389,79.543,146.552Zm5.921,4.766c-.091.1-.147.154-.166.152a2.453,2.453,0,0,1-.269-.173c-.13-.1-.212-.166-.247-.193l-.2.179a.481.481,0,0,0-.1.106,1.48,1.48,0,0,1-.292-.177.983.983,0,0,1-.214-.205c.186-.194.307-.317.362-.36.019-.017.041-.04.067-.068a2.212,2.212,0,0,0,.225.206.672.672,0,0,0,.229.146c.018,0,.074-.047.165-.141a1.254,1.254,0,0,1,.172-.175l.513.4A3.589,3.589,0,0,1,85.464,151.319Zm2.2-1.077-.084,0v0l-.739,0v0l-.829-.02v0l-.4-.011a.436.436,0,0,1-.371-.245.948.948,0,0,1-.081-.287l-.285.483-.9-.089v0l-.84-.1h0l-.024,0-.08-.009v0l-.667-.109,0,.007-.612-.118a.359.359,0,0,1-.29-.33q-.008-.25-.008-.506a.678.678,0,0,0-.212.211c-.166.227-.3.31-.4.258-.139-.075-.307-.146-.5-.244-.273-.127-.448-.206-.527-.23a2.718,2.718,0,0,1,.311-.5,1.855,1.855,0,0,1,.426-.479,2.084,2.084,0,0,1,.368-.148c.182-.068.389-.15.617-.237a.366.366,0,0,0,0-.124.343.343,0,0,1,0-.125c.072-.077.129-.142.172-.19.143-.173.262-.323.358-.443a3.9,3.9,0,0,1-.03.59c-.028.348-.053.695-.077,1.04s-.029.531-.023.551a.217.217,0,0,0,.116.135.944.944,0,0,0,.244.075l.045.009.9.145h0l.708.084h0l1.14.106a.882.882,0,0,0,.059-.26c.015-.125.028-.248.039-.368a3.249,3.249,0,0,1,.219-.294c.136-.175.212-.272.232-.289a.275.275,0,0,1,0,.041c0,.038,0,.076-.005.11-.005.1-.013.205-.027.324s-.034.257-.061.411a.293.293,0,0,0,.072.259.3.3,0,0,0,.227.1l.05,0,.815.019h0l.916,0h0l1.215-.068a2.658,2.658,0,0,0-.1-.289,1.559,1.559,0,0,0-.371-.539l.275-.766a1.382,1.382,0,0,1,.245.308,3.228,3.228,0,0,1,.293.549.844.844,0,0,1,.047.147c.013.051.023.119.034.2s.017.142.02.194.008.1.01.155c-.013.141-.028.3-.048.469s-.036.284-.048.339l-1.529.093v0h-.023Zm1.1,1.107a.864.864,0,0,1-.282.208c-.025.013-.126-.052-.3-.18s-.255-.208-.257-.232.07-.126.217-.284a1.537,1.537,0,0,1,.257-.253,2.417,2.417,0,0,1,.292.227,1.5,1.5,0,0,1,.285.258C88.99,151.127,88.918,151.212,88.771,151.348Zm9.157-3.549a.3.3,0,0,1-.128.078l-.676.316-.007-.012-.682.283,0,0-.755.277,0,.006-.773.251-.335-.3c-.008.072-.015.146-.023.213a1.335,1.335,0,0,1-.043.22l-1.119.314,0-.012-.718.175v.006l-.793.151v0l-.347.071c-.06.005-.105.007-.135.007a.388.388,0,0,1-.2-.061,3,3,0,0,1-.218.811c-.182.406-.4.62-.63.658a2.4,2.4,0,0,1-.894-.219c-.414-.172-.623-.31-.632-.4,0-.034,0-.052.022-.052.11.059.22.12.328.169a.793.793,0,0,0,.37.065,1.069,1.069,0,0,0,.351-.123,1.416,1.416,0,0,0,.428-.355c.078-.1.154-.193.231-.285.167-.208.239-.372.216-.483a.974.974,0,0,0-.264-.36c-.077-.082-.158-.163-.24-.244l.133-.448a2.274,2.274,0,0,1,.087-.265c.137.165.277.327.42.5a.655.655,0,0,0,.614.27l.03,0,.8-.152h0l.891-.217,0,.008.94-.262a.742.742,0,0,0-.247-.16.5.5,0,0,0-.352-.025.612.612,0,0,0-.129.046l-.083.041a2.722,2.722,0,0,1,.018-.294c.015-.185.031-.332.044-.449,0-.024.024-.065.076-.132a.943.943,0,0,1,.434-.284.945.945,0,0,1,1.013.433.61.61,0,0,1,.022.311,1.217,1.217,0,0,0-.014.264l.256-.088v0l.764-.279h0l.846-.35.006.009.515-.232c.006-.011-.005-.04-.034-.088-.069-.12-.246-.359-.534-.731-.143-.188-.3-.389-.462-.6-.057-.019-.1-.034-.126-.045a.655.655,0,0,1-.146-.062c-.021-.195-.038-.36-.048-.5-.025-.264-.031-.419,0-.432a1.067,1.067,0,0,1,.106.132.421.421,0,0,0,.185.161c.142.041.271.073.384.1a1.674,1.674,0,0,0,.413.05l-.038.806q.023.034.324.466c.059.084.149.209.267.373a2.386,2.386,0,0,1,.143.325q.09.24.177.517A.111.111,0,0,1,97.927,147.8Zm-.333-2.4a2.38,2.38,0,0,1-.115-.525c-.04-.249-.062-.409-.066-.476.19.213.345.39.462.529q.54.631.891,1.134a2.283,2.283,0,0,1,.368.77,1.554,1.554,0,0,1,.031.444Zm1.853-1.7a2.226,2.226,0,0,1-.3.018c-.194,0-.292-.005-.3-.006,0,.062-.008.123-.015.182a.606.606,0,0,0,.009.2,1.294,1.294,0,0,1-.347.011,1.519,1.519,0,0,1-.271-.037c0-.181,0-.307,0-.382a1.264,1.264,0,0,0,0-.162.861.861,0,0,0,.295.032.685.685,0,0,0,.251-.01c.016-.009.024-.073.027-.191a1.076,1.076,0,0,1,.013-.2h.614c.016.116.027.233.033.353S99.46,143.689,99.447,143.7ZM110.7,133.414a.508.508,0,0,0-.113.129.8.8,0,0,0-.079.187c.013.016,0,.047-.015.1a.5.5,0,0,1-.038.093l-.226.582h.005l-.327.779h0l-.361.78h0l-.21.427c-.018.035.019.081.126.148q.136.088.123.172l-1.359.86c0,.025.057.082.177.177a.223.223,0,0,1,.038.323l-.181.3h0l-.437.722-.01-.005-.4.607.005,0-.374.505c-.009.037-.039.052-.08.058a.188.188,0,0,1-.121-.027l-.343-.172c.027.036.084.116.171.243l.143.212-.218.292.005,0-.54.65h0l-.536.612.005.005-.354.384a1.244,1.244,0,0,0-.225.008c-.312.014-.49.022-.53.027.006.009.035.078.092.216a2.916,2.916,0,0,0,.125.3l-.813.78.005.005-.642.548,0,0-.612.489.006,0-.5.377a.433.433,0,0,1-.472.008c-.149-.1-.285-.182-.436-.288a.468.468,0,0,0,.038.273c.087.254.075.4-.035.44-.146.063-.327.127-.532.2-.283.125-.467.194-.54.236a2.6,2.6,0,0,1-.232-.529,1.861,1.861,0,0,1-.15-.61,1.728,1.728,0,0,1,.108-.355c.065-.167.127-.367.2-.583a.457.457,0,0,0-.106-.079.459.459,0,0,1-.106-.08c-.022-.1-.038-.179-.054-.238-.052-.2-.1-.374-.143-.52a3.343,3.343,0,0,1,.485.372q.427.35.853.694c.286.225.44.345.461.354a.313.313,0,0,0,.2.007.952.952,0,0,0,.218-.14l.037-.026.639-.506h0l.622-.526h0l.848-.82-1.571-.059c-.093-.1-.195-.225-.305-.367s-.23-.312-.361-.511l.852-1.438.533.573a2.841,2.841,0,0,1-.2.33c-.286.463-.457.734-.5.821l2.222-.036.109-.113h0l.539-.61h0l.525-.622h0l.42-.545-1.919-.792c-.077-.132-.138-.233-.182-.3a4.7,4.7,0,0,1-.24-.418,6,6,0,0,1,1.128.456c.742.327,1.177.521,1.3.588s.2.061.254-.006l.028-.038.513-.758,0,0,.427-.693.006,0,.277-.449c.012-.048-.008-.094-.07-.147a1.5,1.5,0,0,1-.271-.278.925.925,0,0,1-.162-.5.734.734,0,0,1,.05-.46.244.244,0,0,1,.125-.124.259.259,0,0,1,.13.015c.018.007.05.015.1.029a.7.7,0,0,0,.141.021,1.894,1.894,0,0,0,.473-.062c.2-.041.319-.09.347-.144l.026-.05.347-.736h0l.324-.748h0l.239-.605c0-.013-.033-.025-.1-.037a8.691,8.691,0,0,0-.9-.053c-.232-.009-.48-.019-.745-.027l-.123.066a.494.494,0,0,1-.153.063c-.13-.091-.254-.179-.372-.266-.2-.146-.292-.236-.28-.271a1.59,1.59,0,0,0,.217.022.345.345,0,0,0,.188-.039c.155-.115.305-.213.432-.3a1.033,1.033,0,0,0,.244-.205l.234.234c.158.161.254.258.287.288.027,0,.213.019.558.045.1.009.254.018.451.032.084.005.216-.078.393-.251s.3-.263.418-.25a1.123,1.123,0,0,1,.421.142,1.265,1.265,0,0,1,.254.2,1.2,1.2,0,0,1-.19.086A.545.545,0,0,0,110.7,133.414Z" transform="translate(-59.007 -130.229)" fill="#009640"/>
          <path id="Path_45050" data-name="Path 45050" d="M173.927,169.6a.524.524,0,0,0,.01.144.815.815,0,0,1,.008.217,1.291,1.291,0,0,1-.062.209.208.208,0,0,0-.022.166,1.583,1.583,0,0,0,.321-.137c.137-.068.234-.12.291-.156a2.906,2.906,0,0,0-.288-.237Z" transform="translate(-132.587 -155.451)" fill="#009640"/>
          <path id="Path_45051" data-name="Path 45051" d="M195.051,148.15a.4.4,0,0,0-.064.313l.194-.111c.081-.05.141-.086.176-.109.069-.043.1-.072.1-.089a.781.781,0,0,0-.221-.055C195.139,148.087,195.078,148.1,195.051,148.15Z" transform="translate(-146.119 -141.675)" fill="#009640"/>
        </g>
      </g>
    </g>
    <text id="WES" transform="translate(-21843.867 -10285.238)" fill="#101010" font-size="32" font-family="Avenir-Black, Avenir" font-weight="800"><tspan x="-70" y="0">WES</tspan></text>
    <text id="نظام_الأسلحة_والذخيرة" data-name="نظام الأسلحة والذخيرة" transform="translate(-21843.867 -10264.589)" fill="#101010" font-size="17" font-family="AJannatLT-Bold, A Jannat LT" font-weight="700"><tspan x="-155" y="0">نظام الأسلحة والذخيرة</tspan></text>
    <text id="Weapon_and_Ammunition_System" data-name="Weapon and Ammunition System" transform="translate(-21843.867 -10239.749)" fill="#101010" font-size="16" font-family="AJannatLT, A Jannat LT"><tspan x="-239" y="0">Weapon and Ammunition System</tspan></text>
  </g>
</svg>
