<svg xmlns="http://www.w3.org/2000/svg" width="37.833" height="71.456" viewBox="0 0 37.833 71.456">
  <g id="Group_14933" data-name="Group 14933" transform="translate(1.5 1.5)">
    <g id="Group_14930" data-name="Group 14930" transform="translate(0 47.975)">
      <path id="Path_44601" data-name="Path 44601" d="M40.616,86.231a.581.581,0,0,1-.323-.065L23.523,76.555a.677.677,0,0,1-.323-.581V66.427a.677.677,0,0,1,.323-.581.586.586,0,0,1,.645,0l16.449,9.418,16.449-9.418a.586.586,0,0,1,.645,0,.677.677,0,0,1,.323.581v9.611a.677.677,0,0,1-.323.581L40.939,86.231Z" transform="translate(-23.2 -65.75)" fill="none" stroke="#009640" stroke-width="3"/>
    </g>
    <g id="Group_14931" data-name="Group 14931" transform="translate(0 29.164)">
      <path id="Path_44602" data-name="Path 44602" d="M40.616,64.53a.582.582,0,0,1-.323-.064L23.523,54.855a.677.677,0,0,1-.323-.581V44.727a.677.677,0,0,1,.323-.581.586.586,0,0,1,.645,0l16.449,9.418,16.449-9.418a.586.586,0,0,1,.645,0,.677.677,0,0,1,.323.581v9.611a.677.677,0,0,1-.323.581L40.939,64.53Z" transform="translate(-23.2 -44.05)" fill="none" stroke="#009640" stroke-width="3"/>
    </g>
    <g id="Group_14932" data-name="Group 14932" transform="translate(3.33 0)">
      <path id="Path_44603" data-name="Path 44603" d="M50.383,30.263a2.292,2.292,0,0,1-.645-.129l-7.225-3.806L35.224,30.07a1.369,1.369,0,0,1-1.677-.323,1.39,1.39,0,0,1-.323-1.1l1.355-8.063-5.805-5.741a1.222,1.222,0,0,1-.323-1.355,1.43,1.43,0,0,1,1.1-.9l8.063-1.161,3.677-7.354A1.445,1.445,0,0,1,42.513,3.3a1.327,1.327,0,0,1,1.226.774l3.612,7.289,8.128,1.226a1.329,1.329,0,0,1,.774,2.258l-5.87,5.676,1.355,8.063a1.39,1.39,0,0,1-.323,1.1A1.239,1.239,0,0,1,50.383,30.263Z" transform="translate(-28.362 -3.3)" fill="none" stroke="#009640" stroke-width="3"/>
    </g>
  </g>
</svg>
