<svg xmlns="http://www.w3.org/2000/svg" width="65.078" height="65.078" viewBox="0 0 65.078 65.078">
  <g id="Group_14935" data-name="Group 14935" transform="translate(2 2)">
    <path id="Path_44608" data-name="Path 44608" d="M37.753,48.8a2.443,2.443,0,0,0,3.451,0L48.8,41.2a2.442,2.442,0,0,0,0-3.451L41.2,30.16a2.443,2.443,0,0,0-3.451,0l-7.594,7.594a2.442,2.442,0,0,0,0,3.451Z" transform="translate(-8.94 -8.94)" fill="none" stroke="#009640" stroke-width="4"/>
    <path id="Path_44609" data-name="Path 44609" d="M38,81.023h0a7.023,7.023,0,0,0,14.046,0h0a7.023,7.023,0,0,0-14.046,0Z" transform="translate(-14.484 -26.968)" fill="none" stroke="#009640" stroke-width="4"/>
    <path id="Path_44610" data-name="Path 44610" d="M81.023,52.046A7.023,7.023,0,1,0,74,45.023,7.044,7.044,0,0,0,81.023,52.046Z" transform="translate(-26.968 -14.484)" fill="none" stroke="#009640" stroke-width="4"/>
    <path id="Path_44611" data-name="Path 44611" d="M45.023,16.046A7.023,7.023,0,1,0,38,9.023,7.044,7.044,0,0,0,45.023,16.046Z" transform="translate(-14.484 -2)" fill="none" stroke="#009640" stroke-width="4"/>
    <path id="Path_44612" data-name="Path 44612" d="M9.023,52.046A7.023,7.023,0,1,0,2,45.023,7.044,7.044,0,0,0,9.023,52.046Z" transform="translate(-2 -14.484)" fill="none" stroke="#009640" stroke-width="4"/>
  </g>
</svg>
