<svg xmlns="http://www.w3.org/2000/svg" width="23.612" height="25.086" viewBox="0 0 23.612 25.086">
  <g id="Setting" transform="translate(-2.379 -1.528)">
    <path id="Path_33946" d="M21.507,6.559l-.764-1.325a2.347,2.347,0,0,0-3.2-.865h0a2.336,2.336,0,0,1-3.2-.831,2.246,2.246,0,0,1-.314-1.123h0A2.347,2.347,0,0,0,11.68,0H10.141A2.336,2.336,0,0,0,7.805,2.347h0A2.347,2.347,0,0,1,5.458,4.661a2.246,2.246,0,0,1-1.123-.314h0a2.347,2.347,0,0,0-3.2.865L.314,6.559a2.347,2.347,0,0,0,.854,3.2h0a2.347,2.347,0,0,1,1.174,2.033,2.347,2.347,0,0,1-1.174,2.033h0a2.336,2.336,0,0,0-.854,3.19h0l.775,1.337a2.347,2.347,0,0,0,3.2.91h0a2.325,2.325,0,0,1,3.19.854,2.246,2.246,0,0,1,.314,1.123h0a2.347,2.347,0,0,0,2.347,2.347H11.68a2.347,2.347,0,0,0,2.347-2.336h0A2.336,2.336,0,0,1,16.375,18.9a2.392,2.392,0,0,1,1.123.314h0a2.347,2.347,0,0,0,3.2-.854h0l.809-1.348a2.336,2.336,0,0,0-.854-3.2h0a2.336,2.336,0,0,1-.854-3.2,2.3,2.3,0,0,1,.854-.854h0a2.347,2.347,0,0,0,.854-3.19h0Z" transform="translate(3.279 2.278)" fill="none" stroke="#5c4728" stroke-linecap="round" stroke-linejoin="round" stroke-width="1.5"/>
    <circle id="Ellipse_737" cx="3.235" cy="3.235" r="3.235" transform="translate(10.96 10.836)" fill="none" stroke="#5c4728" stroke-linecap="round" stroke-linejoin="round" stroke-width="1.5"/>
  </g>
</svg>
