<svg xmlns="http://www.w3.org/2000/svg" width="24" height="23.999" viewBox="0 0 24 23.999">
  <g id="Graph" transform="translate(-2 -2)">
    <path id="Graph-2" data-name="Graph" d="M1.306,18.616A9.862,9.862,0,0,1,.078,14.853,7.116,7.116,0,0,1,0,13.669,10.433,10.433,0,0,1,8.347,3.552a1.321,1.321,0,0,1,1.434.714,1.284,1.284,0,0,1,.152.309c.163,2.516.337,4.989.5,7.464a2.258,2.258,0,0,0,.12.757,1.231,1.231,0,0,0,1.206.757l7.986-.512.055.021a1.311,1.311,0,0,1,.908.387,1.263,1.263,0,0,1,.363.9,10.4,10.4,0,0,1-8.253,9.405A10.737,10.737,0,0,1,10.553,24,10.576,10.576,0,0,1,1.306,18.616Zm11.74-7.708a1.056,1.056,0,0,1-.352-.789l-.619-9.052V.918a.951.951,0,0,1,.316-.666A.988.988,0,0,1,13.1,0,11.305,11.305,0,0,1,24,9.469a.281.281,0,0,1,0,.1.94.94,0,0,1-.237.691.974.974,0,0,1-.665.322l-9.215.608q-.049,0-.1,0A1.1,1.1,0,0,1,13.046,10.909Z" transform="translate(2 2)" fill="#189640"/>
  </g>
</svg>
