<svg xmlns="http://www.w3.org/2000/svg" width="46.464" height="54.322" viewBox="0 0 46.464 54.322">
  <g id="Paper" transform="translate(1.501 1.5)">
    <path id="Stroke_1" data-name="Stroke 1" d="M29.309,0H10.717A10.676,10.676,0,0,0,0,10.421V40.359A10.7,10.7,0,0,0,10.46,51.288c.087,0,.17,0,.257,0H33.042A10.861,10.861,0,0,0,43.463,40.359V14.744Z" transform="translate(0 0.033)" fill="none" stroke="#009640" stroke-linecap="round" stroke-linejoin="round" stroke-width="3"/>
    <path id="Stroke_3" data-name="Stroke 3" d="M0,0V8.129a7.194,7.194,0,0,0,7.176,7.2h7.7" transform="translate(28.575 0)" fill="none" stroke="#009640" stroke-linecap="round" stroke-linejoin="round" stroke-width="3"/>
    <path id="Stroke_5" data-name="Stroke 5" d="M15.091.5H0" transform="translate(12.962 34.735)" fill="none" stroke="#009640" stroke-linecap="round" stroke-linejoin="round" stroke-width="3"/>
    <path id="Stroke_7" data-name="Stroke 7" d="M9.378.5H0" transform="translate(12.959 24.249)" fill="none" stroke="#009640" stroke-linecap="round" stroke-linejoin="round" stroke-width="3"/>
  </g>
</svg>

